<svg width="60" height="60" viewBox="0 0 60 60" fill="none" xmlns="http://www.w3.org/2000/svg">
<path d="M43.75 50C42 50 40.5208 49.3958 39.3125 48.1875C38.1042 46.9792 37.5 45.5 37.5 43.75C37.5 42 38.1042 40.5208 39.3125 39.3125C40.5208 38.1042 42 37.5 43.75 37.5C44.0833 37.5 44.4583 37.5317 44.875 37.595C45.2917 37.6583 45.75 37.7933 46.25 38V25H55V30H50V43.75C50 45.5 49.3958 46.9792 48.1875 48.1875C46.9792 49.3958 45.5 50 43.75 50ZM27.5 30C24.75 30 22.3958 29.0208 20.4375 27.0625C18.4792 25.1042 17.5 22.75 17.5 20C17.5 17.25 18.4792 14.8958 20.4375 12.9375C22.3958 10.9792 24.75 10 27.5 10C30.25 10 32.6042 10.9792 34.5625 12.9375C36.5208 14.8958 37.5 17.25 37.5 20C37.5 22.75 36.5208 25.1042 34.5625 27.0625C32.6042 29.0208 30.25 30 27.5 30ZM7.5 50V43C7.5 41.5417 7.865 40.2292 8.595 39.0625C9.325 37.8958 10.2933 37 11.5 36.375C14.0833 35.0833 16.7083 34.115 19.375 33.47C22.0417 32.825 24.75 32.5017 27.5 32.5C29.25 32.5 30.99 32.6358 32.72 32.9075C34.45 33.1792 36.1892 33.585 37.9375 34.125C35.1875 35.7917 33.4792 38.1775 32.8125 41.2825C32.1458 44.3875 32.6875 47.2933 34.4375 50H7.5Z" fill="black"/>
</svg>
