<svg width="60" height="60" viewBox="0 0 60 60" fill="none" xmlns="http://www.w3.org/2000/svg">
<path d="M24.9937 8.81255C24.9937 5.48911 27.6983 2.78442 31.0218 2.78442C34.3452 2.78442 37.0499 5.48911 37.0499 8.81255C37.0499 12.136 34.3452 14.8407 31.0218 14.8407C27.6983 14.8407 24.9937 12.1407 24.9937 8.81255ZM28.4999 8.81255C28.4999 10.2047 29.6296 11.3344 31.0218 11.3344C32.414 11.3344 33.5437 10.2047 33.5437 8.81255C33.5437 7.42036 32.414 6.29067 31.0218 6.29067C29.6296 6.29067 28.4999 7.42505 28.4999 8.81255Z" fill="#E2A610"/>
<path d="M36.2062 5.75623C36.2062 5.75623 36.4733 6.82029 35.2405 7.40154C34.0077 7.9781 33.1921 7.55154 33.1921 7.55154C33.4124 7.92654 33.5437 8.3531 33.5437 8.81716C33.5437 10.2094 32.414 11.339 31.0218 11.339C29.6296 11.339 28.4999 10.2094 28.4999 8.81716C28.4999 8.67654 28.5327 8.14685 28.7577 7.70623C26.6671 8.69998 25.078 7.85154 25.078 7.85154C25.0265 8.1656 24.9937 8.48904 24.9937 8.81716C24.9937 12.1406 27.6983 14.8453 31.0218 14.8453C34.3452 14.8453 37.0499 12.1406 37.0499 8.81248C37.0499 7.69685 36.7405 6.65154 36.2062 5.75623Z" fill="#9E740B"/>
<path d="M4.90315 45.8438C8.07659 42.7266 10.0547 41.6766 10.861 37.1578C11.6672 32.6391 11.0203 23.1188 14.5735 16.8844C17.8172 11.175 23.7703 8.8125 29.5781 8.8125C29.7188 8.8125 29.8594 8.82188 30 8.82188C30.1406 8.81719 30.2813 8.8125 30.4219 8.8125C36.2297 8.8125 42.1828 11.175 45.4266 16.8797C48.975 23.1187 48.3328 32.6391 49.1391 37.1531C49.9453 41.6719 51.9235 42.7219 55.0969 45.8391C56.4656 47.1844 58.1203 49.3266 58.125 50.7047C58.1297 52.0828 57.4266 52.5844 55.7532 53.2875C51.0188 55.2797 44.6906 57.2109 30 57.2109C15.3094 57.2109 8.98127 55.2797 4.2469 53.2875C2.57346 52.5844 1.87034 52.0875 1.87502 50.7047C1.87971 49.3312 3.5344 47.1891 4.90315 45.8438Z" fill="#FFCA28"/>
<path d="M53.2969 50.8031C53.2969 48.7265 42.8672 47.0437 30 47.0437C17.1328 47.0437 6.70312 48.7265 6.70312 50.8031C6.70312 52.8796 17.1328 55.3593 30 55.3593C42.8672 55.3593 53.2969 52.8796 53.2969 50.8031Z" fill="#4E342E"/>
<path d="M43.9875 20.9953C44.1609 21.6563 44.3062 22.3172 44.4234 22.9641C45.0187 26.2734 44.9109 29.6672 45.1781 33.0188C45.539 37.5047 46.3359 39.8672 48.15 41.9766C48.389 42.2531 48.1453 42.6797 47.7843 42.6234C45.3609 42.2531 43.4156 41.8828 41.1984 40.4203C37.889 38.2406 37.0734 34.1391 37.05 30.4547C37.0125 24.9703 37.1156 19.6594 36.6797 17.6438C36.075 14.8359 35.5125 13.3406 34.5937 11.9766C33.1922 9.89532 38.6343 12.7828 39.4875 13.425C41.864 15.2203 43.2281 18.1078 43.9875 20.9953Z" fill="#E2A610"/>
<path d="M14.4799 28.275C14.4236 24.7219 14.4517 21.0469 15.8674 17.7844C16.7158 15.8344 18.1549 14.0766 19.9924 12.9844C21.4361 12.1266 24.3705 11.1797 25.4252 13.125C25.6361 13.5141 25.7205 13.9688 25.7346 14.4141C25.7721 15.9656 24.9658 17.4 24.183 18.7406C21.8674 22.7156 20.9439 27.061 19.7205 31.4672C19.2189 33.286 18.5814 35.1 17.4892 36.6375C16.7392 37.6922 12.5627 41.4422 13.5189 38.0531C14.4377 34.7766 14.5314 31.6875 14.4799 28.275Z" fill="#FFF59D"/>
<path d="M34.261 50.0719C34.2563 49.2656 33.8204 48.8016 32.8172 48.4547C30.736 47.7375 28.1297 47.8688 26.611 48.6844C25.0172 49.5375 26.1235 54.2672 30.0001 54.2672C33.8766 54.2672 34.2657 50.686 34.261 50.0719Z" fill="#E2A610"/>
<path d="M15.5857 43.0265C11.4701 43.7484 8.48883 45.3093 7.19977 46.5749C6.1779 47.5734 6.1779 48.3609 7.9779 47.5406C9.33259 46.9218 13.6732 45.6656 17.4748 45.2859C24.0045 44.6296 28.0357 44.6156 28.706 44.6296C30.2763 44.6624 30.4076 43.4531 27.2341 43.0265C24.0607 42.6046 19.7013 42.3093 15.5857 43.0265ZM28.3404 53.3531C28.8841 53.7281 29.606 53.9109 30.2154 53.6578C30.8248 53.4046 31.2185 52.6312 30.9185 52.0453C30.8013 51.8156 30.5998 51.6421 30.3982 51.4828C29.8404 51.0468 29.2216 50.6906 28.5654 50.4281C28.3076 50.3249 28.0357 50.2312 27.7545 50.2499C27.4779 50.264 27.1873 50.4093 27.0795 50.6671C26.6154 51.7218 27.5435 52.8093 28.3404 53.3531Z" fill="#FFF59D"/>
</svg>
