<svg width="60" height="60" viewBox="0 0 60 60" fill="none" xmlns="http://www.w3.org/2000/svg">
<path d="M22.5 7.5H37.5L42.5 12.5H52.5C53.163 12.5 53.7989 12.7634 54.2678 13.2322C54.7366 13.7011 55 14.337 55 15V50C55 50.663 54.7366 51.2989 54.2678 51.7678C53.7989 52.2366 53.163 52.5 52.5 52.5H7.5C6.83696 52.5 6.20107 52.2366 5.73223 51.7678C5.26339 51.2989 5 50.663 5 50V15C5 14.337 5.26339 13.7011 5.73223 13.2322C6.20107 12.7634 6.83696 12.5 7.5 12.5H17.5L22.5 7.5ZM30 47.5C33.9782 47.5 37.7936 45.9197 40.6066 43.1066C43.4197 40.2936 45 36.4782 45 32.5C45 28.5218 43.4197 24.7064 40.6066 21.8934C37.7936 19.0804 33.9782 17.5 30 17.5C26.0218 17.5 22.2064 19.0804 19.3934 21.8934C16.5804 24.7064 15 28.5218 15 32.5C15 36.4782 16.5804 40.2936 19.3934 43.1066C22.2064 45.9197 26.0218 47.5 30 47.5ZM30 42.5C27.3478 42.5 24.8043 41.4464 22.9289 39.5711C21.0536 37.6957 20 35.1522 20 32.5C20 29.8478 21.0536 27.3043 22.9289 25.4289C24.8043 23.5536 27.3478 22.5 30 22.5C32.6522 22.5 35.1957 23.5536 37.0711 25.4289C38.9464 27.3043 40 29.8478 40 32.5C40 35.1522 38.9464 37.6957 37.0711 39.5711C35.1957 41.4464 32.6522 42.5 30 42.5Z" fill="#FFF"/>
</svg>
