<svg width="77" height="70" viewBox="0 0 77 70" fill="none" xmlns="http://www.w3.org/2000/svg">
<path d="M68.5781 14.8438C69.3802 15.5729 70.0677 16.5625 70.6406 17.8125C71.2135 19.0625 71.5 20.2083 71.5 21.25V66.25C71.5 67.2917 71.099 68.1771 70.2969 68.9062C69.4948 69.6354 68.5208 70 67.375 70H9.625C8.47917 70 7.50521 69.6354 6.70312 68.9062C5.90104 68.1771 5.5 67.2917 5.5 66.25V3.75C5.5 2.70833 5.90104 1.82292 6.70312 1.09375C7.50521 0.364583 8.47917 0 9.625 0H48.125C49.2708 0 50.5312 0.260417 51.9062 0.78125C53.2812 1.30208 54.3698 1.92708 55.1719 2.65625L68.5781 14.8438ZM49.5 5.3125V20H65.6562C65.3698 19.2448 65.0547 18.7109 64.7109 18.3984L51.2617 6.17188C50.918 5.85938 50.3307 5.57292 49.5 5.3125ZM66 65V25H48.125C46.9792 25 46.0052 24.6354 45.2031 23.9062C44.401 23.1771 44 22.2917 44 21.25V5H11V65H66ZM22 31.25C22 30.8854 22.1289 30.5859 22.3867 30.3516C22.6445 30.1172 22.974 30 23.375 30H53.625C54.026 30 54.3555 30.1172 54.6133 30.3516C54.8711 30.5859 55 30.8854 55 31.25V33.75C55 34.1146 54.8711 34.4141 54.6133 34.6484C54.3555 34.8828 54.026 35 53.625 35H23.375C22.974 35 22.6445 34.8828 22.3867 34.6484C22.1289 34.4141 22 34.1146 22 33.75V31.25ZM53.625 40C54.026 40 54.3555 40.1172 54.6133 40.3516C54.8711 40.5859 55 40.8854 55 41.25V43.75C55 44.1146 54.8711 44.4141 54.6133 44.6484C54.3555 44.8828 54.026 45 53.625 45H23.375C22.974 45 22.6445 44.8828 22.3867 44.6484C22.1289 44.4141 22 44.1146 22 43.75V41.25C22 40.8854 22.1289 40.5859 22.3867 40.3516C22.6445 40.1172 22.974 40 23.375 40H53.625ZM53.625 50C54.026 50 54.3555 50.1172 54.6133 50.3516C54.8711 50.5859 55 50.8854 55 51.25V53.75C55 54.1146 54.8711 54.4141 54.6133 54.6484C54.3555 54.8828 54.026 55 53.625 55H23.375C22.974 55 22.6445 54.8828 22.3867 54.6484C22.1289 54.4141 22 54.1146 22 53.75V51.25C22 50.8854 22.1289 50.5859 22.3867 50.3516C22.6445 50.1172 22.974 50 23.375 50H53.625Z" fill="white"/>
</svg>
