<svg width="30" height="30" viewBox="0 0 30 30" fill="none" xmlns="http://www.w3.org/2000/svg">
<path d="M25 2.5H10C8.625 2.5 7.5 3.625 7.5 5V20C7.5 21.375 8.625 22.5 10 22.5H25C26.375 22.5 27.5 21.375 27.5 20V5C27.5 3.625 26.375 2.5 25 2.5ZM21.25 8.75H18.75V15.4625C18.75 17.05 17.625 18.5125 16.05 18.7125C15.5579 18.7797 15.0568 18.7289 14.5882 18.5643C14.1196 18.3997 13.6969 18.126 13.355 17.7657C13.0131 17.4055 12.7617 16.969 12.6218 16.4925C12.4818 16.0159 12.4572 15.5129 12.55 15.025C12.8 13.65 14.025 12.5875 15.425 12.5C16.2125 12.45 16.925 12.7 17.5 13.1375V7.5C17.5 6.8125 18.0625 6.25 18.75 6.25H21.25C21.9375 6.25 22.5 6.8125 22.5 7.5C22.5 8.1875 21.9375 8.75 21.25 8.75ZM3.75 7.5C3.0625 7.5 2.5 8.0625 2.5 8.75V25C2.5 26.375 3.625 27.5 5 27.5H21.25C21.9375 27.5 22.5 26.9375 22.5 26.25C22.5 25.5625 21.9375 25 21.25 25H6.25C5.5625 25 5 24.4375 5 23.75V8.75C5 8.0625 4.4375 7.5 3.75 7.5Z" fill="white"/>
</svg>
