<svg version="1.1" id="Layer_1" xmlns="http://www.w3.org/2000/svg" xmlns:xlink="http://www.w3.org/1999/xlink" x="0px" y="0px"
	 width="100%" viewBox="0 0 1024 1024" enable-background="new 0 0 1024 1024" xml:space="preserve">
<path fill="#000000" opacity="1.000000" stroke="none" 
	d="
M793.411865,398.678253 
	C795.445740,415.892914 795.196350,432.706146 794.065186,449.475250 
	C792.103882,478.551025 785.955933,506.780884 775.384399,533.966980 
	C751.053589,596.537231 709.072449,643.687561 650.641602,676.437256 
	C618.877502,694.240601 584.987183,705.734314 548.823059,709.883850 
	C526.945862,712.394104 504.969940,712.193176 483.021179,709.642456 
	C450.231506,705.831848 419.234406,696.125610 389.885773,681.290466 
	C329.325745,650.678650 284.946503,604.789429 258.397186,541.882263 
	C247.952362,517.133789 240.764465,491.592499 237.190384,465.106262 
	C234.000290,441.465851 233.768692,417.717346 236.419052,393.880768 
	C242.954453,335.102936 266.091156,283.522400 304.234039,238.864700 
	C335.763275,201.950211 374.826141,175.312759 420.656433,158.732254 
	C456.899292,145.620316 494.329285,140.347687 532.575745,143.024170 
	C591.317810,147.134949 644.224121,167.318390 690.010071,204.678802 
	C719.493408,228.736572 743.273071,257.650085 761.029419,291.497314 
	C776.324890,320.653564 786.772949,351.334045 791.852966,383.842102 
	C792.596191,388.598267 792.880798,393.426117 793.411865,398.678253 
M588.572449,315.936340 
	C588.024170,315.554291 587.457581,315.195892 586.930237,314.786835 
	C555.505371,290.409149 519.964783,276.840637 480.264587,274.321289 
	C477.167328,274.124756 475.651794,272.685059 474.083740,270.217621 
	C469.018524,262.247223 457.130249,261.715271 452.135193,269.476227 
	C449.996552,272.799103 448.318298,272.084045 445.672363,270.992310 
	C437.219208,267.504364 429.014496,263.385162 420.168793,260.880341 
	C417.060913,260.000275 415.281891,258.490295 416.516113,254.725037 
	C417.220917,252.574890 417.279358,249.921234 416.188293,247.851608 
	C414.192566,244.065994 416.022430,242.372650 419.171234,240.992630 
	C427.709717,237.250443 436.089447,233.158752 444.932739,230.101318 
	C447.751770,229.126663 449.806671,229.183105 452.305206,230.872757 
	C459.259949,235.575912 464.508606,234.584610 469.343353,227.729324 
	C470.602875,225.943481 471.799744,224.893387 474.070312,224.719208 
	C496.809906,222.974792 519.322083,224.285721 541.502747,229.756958 
	C591.991272,242.210876 632.020752,270.693665 664.763123,310.333313 
	C667.031860,313.080017 667.490784,315.373138 665.786194,318.841675 
	C661.309265,327.951447 669.218140,339.106689 679.145508,337.365814 
	C684.164062,336.485748 685.971130,338.390930 687.867798,342.194733 
	C695.761719,358.026184 702.673706,374.231506 707.576599,391.262848 
	C708.109436,393.113922 708.229492,395.658813 711.184021,395.891876 
	C712.182922,393.453888 711.058838,391.403137 710.478271,389.417572 
	C705.368652,371.942047 698.577271,355.120789 690.083618,339.024353 
	C688.453186,335.934570 687.910828,333.662323 689.915710,330.444824 
	C692.806213,325.806122 692.548401,320.771820 688.885193,316.504181 
	C685.139832,312.140625 680.581177,308.979858 674.454529,311.161865 
	C671.471619,312.224182 669.811279,311.204102 668.114197,309.008026 
	C659.424255,297.762726 649.446594,287.734589 638.870972,278.276611 
	C595.958557,239.899185 546.208862,219.580246 488.152924,221.160843 
	C483.488861,221.287842 478.821930,221.320404 474.156006,221.362305 
	C472.656738,221.375778 471.022644,221.461578 470.354828,219.680923 
	C469.638794,217.771576 470.787354,216.511002 472.122070,215.416290 
	C472.762360,214.891144 473.483582,214.456375 474.198456,214.031769 
	C484.941162,207.651535 495.703888,201.304840 506.419006,194.878708 
	C508.002289,193.929169 509.389221,193.601242 511.055908,194.571930 
	C515.785706,197.326584 519.829529,195.842880 523.023254,192.026443 
	C524.674316,190.053558 526.371399,189.666245 528.671509,189.922333 
	C538.260742,190.990036 547.929871,190.998184 557.488953,192.676682 
	C589.606506,198.316254 619.201172,210.181519 646.411682,228.077026 
	C648.675171,229.565689 650.270691,231.354965 650.438904,234.494507 
	C650.704224,239.446487 654.595215,242.381439 659.219543,241.758545 
	C663.603882,241.167969 666.536255,237.157333 665.806946,232.748871 
	C665.080811,228.359390 660.702209,225.022446 656.149597,226.420807 
	C652.366699,227.582718 649.835632,226.334152 646.941406,224.502426 
	C611.524353,202.087418 573.333984,188.184189 531.041382,187.073456 
	C527.288452,186.974915 524.456360,186.186371 522.438538,182.519531 
	C520.765320,179.478973 517.604675,177.701004 513.933594,178.771240 
	C510.416229,179.796661 507.231201,181.927811 507.471222,186.031174 
	C507.739166,190.612396 505.140991,192.383545 501.751099,194.326202 
	C491.494385,200.204056 481.323853,206.242401 471.289673,212.491028 
	C468.918640,213.967545 467.228668,213.818405 464.901917,212.754776 
	C456.686493,208.999268 449.210785,213.245987 448.411774,222.210785 
	C448.178986,224.822327 447.198700,225.843781 444.841248,226.718277 
	C435.473663,230.193054 426.285736,234.133606 417.370209,238.651642 
	C414.240295,240.237778 411.677307,240.392563 408.627014,238.234650 
	C402.768860,234.090363 396.749603,234.611725 390.980621,238.730133 
	C385.559967,242.599854 383.658569,247.931686 384.283478,254.429504 
	C384.439880,256.055908 385.351624,257.914673 382.953094,259.190033 
	C371.168488,265.455963 360.345276,273.224091 349.548431,281.014618 
	C347.430450,282.542877 345.382446,282.860870 343.029694,281.692139 
	C339.223267,279.801300 335.591583,279.924561 332.466003,283.074738 
	C329.370880,286.194214 329.370026,290.053253 330.741821,293.785400 
	C331.726715,296.464996 331.339874,298.598663 329.935333,300.852600 
	C329.286652,301.893585 328.096344,302.941925 329.439056,304.583832 
	C331.448975,304.394196 332.285065,302.585449 333.457977,301.318878 
	C334.621643,300.062317 335.632996,299.194458 337.661407,299.309937 
	C344.676636,299.709290 348.598022,295.735779 348.094177,288.826935 
	C347.943604,286.762360 348.334442,285.347412 350.002106,284.100800 
	C360.552460,276.214417 371.460907,268.885712 382.898895,262.333160 
	C385.179596,261.026611 386.593842,261.295013 388.611206,262.913239 
	C396.989014,269.633423 403.071899,269.677399 412.091339,263.159729 
	C414.287415,261.572754 416.210449,261.443878 418.569336,262.461243 
	C427.284576,266.219910 435.959747,270.092102 444.810944,273.504150 
	C448.028351,274.744385 449.332520,276.698547 450.191498,279.766632 
	C452.433197,287.773682 458.152954,291.534973 466.323486,290.211975 
	C468.780762,289.814087 469.859711,290.791931 471.361298,292.281433 
	C481.079132,301.920959 489.728241,312.491272 498.471924,322.984070 
	C499.682526,324.436859 500.749756,326.198303 503.171234,326.276154 
	C503.410217,323.604309 501.719666,322.119202 500.472443,320.448608 
	C493.585236,311.223236 486.056519,302.473816 477.966217,294.364594 
	C473.127289,289.514343 473.031067,285.596344 476.013153,280.197937 
	C477.189209,278.068939 478.222076,277.293274 480.565796,277.589844 
	C486.507172,278.341614 492.525604,278.588409 498.420807,279.584229 
	C541.303711,286.828003 577.495117,306.586334 607.209229,338.260223 
	C618.189087,349.964264 627.795349,362.707947 635.889465,376.599884 
	C638.226868,380.611542 638.568237,383.657715 634.413513,386.784607 
	C629.869629,390.204559 626.457214,394.826599 623.107056,399.400513 
	C610.800720,416.202057 593.804626,423.304993 573.456970,423.640381 
	C569.746155,423.701538 567.833252,422.266876 567.960022,418.397491 
	C568.041870,415.901276 567.726074,413.380310 567.947632,410.902557 
	C568.757874,401.838776 565.280823,392.262451 571.482971,383.784546 
	C572.739502,382.066925 571.843811,379.488953 569.811829,378.043213 
	C567.986755,376.744598 565.972778,375.814575 563.813965,377.295441 
	C561.640564,378.786255 559.667236,380.970276 560.728027,383.543579 
	C563.735229,390.838715 562.046631,398.367004 562.326782,405.768005 
	C562.525208,411.012512 563.179871,416.360046 561.914246,421.789368 
	C556.935364,421.627869 552.645325,419.862366 548.269104,418.326874 
	C544.766663,417.097931 543.465210,414.913849 543.524658,411.192749 
	C543.718933,399.029877 543.642151,386.862549 543.650085,374.696930 
	C543.652283,371.367523 543.624207,368.202179 545.865234,365.227631 
	C547.688782,362.807220 546.780579,360.109619 544.473816,358.126221 
	C542.299683,356.256836 540.022888,356.036194 537.705933,357.950012 
	C535.361877,359.886200 534.379883,362.345673 536.019104,364.997070 
	C537.989258,368.183746 538.153931,371.566559 538.144653,375.091125 
	C538.116455,385.756683 538.158813,396.422485 538.103821,407.087799 
	C538.094788,408.834595 538.609863,410.783264 536.305603,412.848358 
	C530.731506,409.063263 525.251099,404.941193 520.407837,399.962036 
	C520.189392,399.737427 519.976074,399.372955 519.985840,399.081085 
	C520.246826,391.237061 517.595581,383.154968 521.689880,375.628021 
	C523.100769,373.034332 522.797974,370.815826 520.879883,368.788818 
	C518.900635,366.697205 516.418945,366.572998 513.990662,367.771973 
	C511.321289,369.090027 510.362579,371.883057 511.589111,374.143341 
	C515.011536,380.450378 513.893250,387.135376 513.993286,393.716278 
	C514.108032,401.269409 504.171539,411.757202 495.671082,412.784546 
	C495.671082,399.591278 495.687103,386.459869 495.658539,373.328552 
	C495.652283,370.463989 495.812256,367.755310 497.603241,365.257568 
	C499.512268,362.595276 498.389526,360.184784 496.244659,358.172394 
	C494.070862,356.132935 491.784576,356.277802 489.468018,357.991425 
	C486.880127,359.905823 486.359253,362.540894 487.966858,365.032196 
	C490.214508,368.515350 490.270142,372.216644 490.250305,376.071075 
	C490.202271,385.403442 490.213196,394.736237 490.238403,404.068787 
	C490.276459,418.157043 489.454987,419.146240 475.503296,421.525909 
	C475.175232,421.581879 474.851929,421.667603 474.528320,421.747192 
	C472.091675,422.346619 470.879303,421.066650 471.006409,418.887329 
	C471.678497,407.365997 468.484894,395.634186 472.846466,384.314911 
	C473.933472,381.493835 472.895813,379.367340 470.478210,377.954102 
	C468.286407,376.672852 465.946655,376.759979 463.947662,378.438416 
	C461.736053,380.295380 462.123779,382.540649 463.408569,384.749878 
	C464.661346,386.904236 466.168518,388.926453 466.148895,391.603912 
	C466.082947,400.602081 466.031677,409.600494 466.015564,418.598877 
	C466.009369,422.054047 464.215881,423.479431 460.952850,423.059509 
	C456.500427,422.486511 451.854767,422.383850 447.668274,420.967316 
	C434.575409,416.537262 422.358948,412.037628 418.387299,395.550140 
	C414.612610,379.880310 405.046906,366.793243 390.177612,358.939911 
	C367.285553,346.849274 342.239319,358.878723 339.595886,383.985168 
	C338.639038,393.072601 343.813995,403.314667 351.966064,407.941620 
	C360.283081,412.662201 367.253235,410.613647 373.638428,403.671936 
	C378.819611,407.359558 381.177856,412.652557 383.131683,418.110962 
	C387.149292,429.334869 388.831482,441.006531 389.269043,452.874359 
	C390.441101,484.662476 384.762787,515.916443 381.854584,547.386108 
	C380.275574,564.472961 381.108337,581.435242 386.671753,597.713135 
	C402.454498,643.891357 435.556763,671.736084 482.032837,683.022461 
	C518.099854,691.781189 553.539429,687.909668 586.772949,670.053589 
	C633.691650,644.844666 656.952271,600.655823 653.466003,549.278137 
	C651.911438,526.367493 648.559143,503.597931 647.280579,480.649902 
	C646.525391,467.095581 647.463501,453.650909 650.961304,440.527039 
	C653.076660,432.590302 656.784607,425.432312 664.160706,420.870789 
	C676.032288,434.829620 693.609070,426.068420 696.555176,411.518982 
	C698.764832,400.606628 694.271301,388.379272 685.194092,381.893280 
	C673.060486,373.223419 660.174866,372.758179 646.876343,378.725342 
	C643.494690,380.242676 641.518555,379.791809 639.679932,376.451447 
	C626.818787,353.085449 609.460999,333.468323 588.572449,315.936340 
M736.494385,490.002869 
	C737.539795,490.511169 738.575073,491.041870 739.632568,491.523804 
	C743.680176,493.368378 747.727051,492.080048 750.379883,488.119049 
	C752.733582,484.604675 752.425781,479.438293 748.626160,477.531616 
	C743.364990,474.891449 743.165771,470.456268 742.858521,465.923859 
	C740.828186,435.973175 733.986816,407.112030 723.416260,379.085022 
	C722.212158,375.892487 721.536438,373.048096 723.296326,369.604401 
	C725.093201,366.088013 723.933777,362.695129 720.098511,360.844574 
	C716.418579,359.069031 713.871155,361.009735 712.265259,364.011993 
	C710.279175,367.725098 711.531555,370.851349 715.211670,372.752319 
	C716.924438,373.637024 718.199890,374.555603 718.848633,376.496216 
	C720.905212,382.648285 723.252319,388.704163 725.269897,394.868286 
	C732.641785,417.390594 736.473755,440.594818 739.527222,464.056305 
	C740.692322,473.008484 735.026001,479.120148 733.770264,486.849457 
	C733.605591,487.862946 731.983154,488.757965 730.887268,489.483093 
	C722.143066,495.268860 713.372864,501.015411 704.581482,506.729248 
	C703.504272,507.429382 702.160645,508.884430 701.028137,508.057861 
	C695.478638,504.007568 685.502380,507.705933 683.239197,497.938599 
	C683.226318,497.882935 682.638245,497.960541 682.206116,497.981323 
	C680.313843,500.136963 682.220703,501.995392 682.867798,503.860474 
	C683.635071,506.072144 684.719971,508.106018 683.347656,510.505890 
	C680.485291,515.511719 681.272156,520.134399 685.300232,524.128235 
	C689.383301,528.176514 694.119263,528.470581 699.046448,525.851746 
	C701.105469,524.757385 702.671143,524.999146 704.493408,526.387390 
	C710.583740,531.027100 716.763794,535.549927 722.946167,540.067322 
	C725.070312,541.619385 726.292603,543.048096 725.585022,546.193481 
	C724.681274,550.210876 727.616333,552.722412 731.050171,554.102722 
	C734.359497,555.432983 736.866272,553.538330 738.806213,551.073364 
	C740.703430,548.662720 741.117004,545.945435 739.485046,543.151367 
	C737.819092,540.299072 735.381897,538.691772 732.039429,539.270447 
	C729.473022,539.714783 727.288879,539.753845 725.055481,537.958618 
	C719.089172,533.162781 712.907410,528.636169 706.874634,523.921509 
	C702.717102,520.672363 702.990234,511.666748 707.406067,508.709259 
	C716.806458,502.413513 726.297241,496.252655 736.494385,490.002869 
M319.825836,330.960480 
	C316.217194,325.618866 312.204590,323.660095 307.441071,324.914734 
	C302.635315,326.180511 299.503387,329.810089 299.348877,334.412689 
	C299.195770,338.973145 301.019623,342.430786 305.179840,344.544159 
	C309.263367,346.618652 313.205139,346.390900 316.904755,343.719910 
	C321.210724,340.611176 321.364960,336.300873 319.825836,330.960480 
M305.351868,426.256775 
	C299.885651,421.169983 300.447327,414.777374 301.324921,408.243835 
	C301.632324,405.955139 301.556091,403.595154 301.442810,401.278107 
	C301.386810,400.133026 300.912476,398.941010 298.771851,399.337006 
	C297.407684,405.175842 298.644409,411.381348 297.555969,417.376434 
	C297.196533,419.356140 297.100281,421.182953 295.217743,422.589874 
	C292.045441,424.960754 290.969177,428.247925 292.976044,431.830780 
	C294.424103,434.416168 296.791718,436.201141 300.024170,435.272186 
	C304.095093,434.102264 305.945831,431.235382 305.351868,426.256775 
M285.430756,370.142426 
	C285.109985,376.026764 287.737854,379.845093 292.664581,380.653168 
	C296.628357,381.303345 300.307892,378.996460 301.482178,375.125000 
	C302.733551,370.999603 300.644318,366.614380 296.642914,364.967346 
	C291.973358,363.045288 288.545410,364.427124 285.430756,370.142426 
M319.372559,505.448303 
	C314.728424,505.769165 311.784271,508.233154 311.535767,512.850220 
	C311.329041,516.691040 313.559631,519.471802 317.294037,520.653381 
	C321.175751,521.881592 325.458862,519.636169 326.529724,516.010681 
	C327.995667,511.047516 326.024292,507.830475 319.372559,505.448303 
M672.362244,470.305756 
	C674.080078,473.632355 672.919189,478.428955 677.340271,481.014435 
	C678.590454,474.224121 665.778198,436.479767 660.795532,433.124115 
	C663.505676,445.578247 668.418579,457.383881 672.362244,470.305756 
M288.362579,471.289703 
	C288.075134,467.238922 286.102386,464.554108 281.874298,464.676727 
	C278.705322,464.768616 275.914612,466.274872 275.488892,469.871033 
	C275.103241,473.128845 277.140472,475.445770 279.905914,476.405182 
	C283.917358,477.796875 286.564087,475.593628 288.362579,471.289703 
M512.818909,353.504303 
	C517.441528,356.218292 520.314453,355.820160 522.379517,352.024719 
	C524.349609,348.403839 522.335022,346.036438 519.507324,344.172913 
	C517.282471,342.706665 514.991089,343.144592 513.127991,344.881256 
	C510.576721,347.259491 510.533844,350.051941 512.818909,353.504303 
M624.093811,307.513153 
	C619.268982,308.117981 616.747009,310.522888 617.479492,314.163544 
	C618.230530,317.895996 620.890808,319.262726 624.482300,318.763977 
	C626.618408,318.467316 628.075073,317.111938 628.588379,314.970001 
	C629.423340,311.485809 627.711670,309.287628 624.093811,307.513153 
M690.997009,575.427063 
	C688.044312,576.483459 686.679443,578.578125 687.569458,581.603455 
	C688.331177,584.192566 690.145691,585.910706 693.096497,585.557129 
	C696.022827,585.206543 697.553955,583.121155 697.579590,580.455078 
	C697.614807,576.804443 695.249207,575.242493 690.997009,575.427063 
M334.338684,588.255310 
	C336.604004,589.396729 338.467194,588.987671 339.862976,586.812134 
	C340.758148,585.416870 340.785492,583.991699 339.786987,582.667358 
	C338.270782,580.656372 336.295990,579.218567 333.924866,580.970032 
	C331.226501,582.963257 331.694580,585.451355 334.338684,588.255310 
M334.843231,467.178436 
	C331.714752,466.122528 331.249023,468.591583 330.610077,470.541809 
	C329.935059,472.601929 331.277893,473.952271 332.790771,475.044189 
	C334.230713,476.083435 335.649933,475.645111 336.796967,474.544342 
	C338.742493,472.677368 337.272247,470.960388 336.380920,469.258118 
	C336.078949,468.681396 335.718384,468.135315 334.843231,467.178436 
z"/>
<path fill="#000000" opacity="1.000000" stroke="none" 
	d="
M439.190094,827.865112 
	C438.999084,829.130310 438.842926,829.948181 438.698853,830.768188 
	C436.729675,841.973389 436.730255,842.028320 425.494568,842.057556 
	C406.996277,842.105652 388.497803,842.076416 369.999390,842.072632 
	C369.000183,842.072388 368.001129,841.982727 367.001740,841.975769 
	C364.750488,841.960144 363.702087,840.906799 363.686981,838.595032 
	C363.672699,836.411194 364.390442,835.103027 366.736145,834.934448 
	C372.810425,834.498169 375.472076,830.796570 375.998260,825.110229 
	C376.227997,822.627502 376.626953,820.143555 376.631348,817.659607 
	C376.678131,791.160889 376.693756,764.661926 376.615936,738.163330 
	C376.607208,735.191956 376.207886,732.170227 375.570007,729.263916 
	C374.527802,724.515503 371.898285,720.985168 366.697021,720.385132 
	C363.822418,720.053467 362.588135,718.789185 362.661438,715.876282 
	C362.744049,712.595520 365.000244,712.725891 367.187836,712.714600 
	C374.853973,712.674988 382.529327,712.898010 390.183136,712.582825 
	C394.581879,712.401733 396.033691,713.990723 395.998627,718.288696 
	C395.864044,734.786499 395.996765,751.286194 395.990112,767.785217 
	C395.982239,787.284180 395.923859,806.783142 395.907623,826.282104 
	C395.902252,832.721985 396.180054,832.968140 402.697296,832.997131 
	C402.863953,832.997864 403.034241,832.974854 403.196777,833.000671 
	C415.417786,834.943054 423.682587,829.586304 429.193542,819.013550 
	C430.033783,817.401550 431.103058,815.854736 432.319336,814.505798 
	C434.095703,812.535645 436.530365,812.529968 438.818665,813.265747 
	C441.290771,814.060669 440.353973,816.328064 440.255035,818.002502 
	C440.069092,821.150452 439.588562,824.281006 439.190094,827.865112 
z"/>
<path fill="#000000" opacity="1.000000" stroke="none" 
	d="
M475.762573,844.702332 
	C471.828217,853.574951 468.267181,862.203491 464.211334,870.592834 
	C461.339447,876.533203 457.260406,881.644653 450.623993,883.841003 
	C444.533295,885.856689 438.688904,883.369934 436.385651,877.973877 
	C434.091278,872.598694 435.860413,866.929260 440.785797,864.153442 
	C444.419952,862.105469 448.260590,862.014587 451.729736,864.229980 
	C455.392883,866.569336 457.088654,865.160217 458.460480,861.735046 
	C460.999359,855.395874 463.626862,849.091003 466.305847,842.809570 
	C467.346405,840.369873 467.387939,838.232178 466.161835,835.714539 
	C456.098755,815.052185 446.157288,794.330505 436.241882,773.596680 
	C434.255249,769.442444 431.837463,766.123779 426.611023,766.302856 
	C424.839600,766.363586 423.840485,765.415100 423.813782,763.546753 
	C423.782440,761.351929 425.089417,760.670349 427.000305,760.619385 
	C433.647522,760.441956 440.301239,760.004578 446.939819,760.171387 
	C452.098419,760.301025 457.223267,760.812012 462.394348,760.153564 
	C464.497803,759.885803 466.970428,759.818298 467.162415,763.034424 
	C467.330231,765.845459 465.388306,766.025940 463.255341,766.393250 
	C457.010864,767.468872 456.284546,768.925110 459.080933,774.731934 
	C464.572266,786.135010 470.147766,797.497559 475.722992,808.859924 
	C476.363281,810.164856 476.830933,811.652710 478.735718,812.651062 
	C484.288605,799.406921 489.840912,786.258179 495.300171,773.070801 
	C496.514801,770.136780 495.201782,768.201477 492.245453,767.445374 
	C490.317749,766.952332 488.339478,766.612305 486.363739,766.364502 
	C484.472046,766.127136 483.871887,765.040039 483.826324,763.312439 
	C483.775482,761.384155 484.698883,760.680725 486.557159,760.642822 
	C496.215454,760.446228 505.871796,760.147888 515.530457,759.979919 
	C517.509399,759.945435 519.728210,759.990112 519.997009,762.807617 
	C520.270569,765.674927 518.484619,766.841431 516.054016,766.791809 
	C509.966919,766.667542 507.345154,770.396423 505.242584,775.399048 
	C495.565094,798.424744 485.713531,821.377258 475.762573,844.702332 
z"/>
<path fill="#000000" opacity="1.000000" stroke="none" 
	d="
M631.008118,831.685181 
	C623.715454,839.696472 615.532654,844.789246 604.406982,842.359680 
	C595.459229,840.405701 589.470337,833.855774 587.922791,824.460999 
	C586.690063,816.977234 590.838135,808.578918 598.045227,804.196472 
	C604.989380,799.973877 612.937256,798.500183 620.588257,796.290955 
	C633.184937,792.653687 635.503967,788.595459 631.622620,776.048584 
	C629.410400,768.897339 621.487061,764.842834 614.454102,767.154480 
	C611.520264,768.118774 610.036072,769.318176 611.026245,772.935181 
	C612.616272,778.743408 611.066467,782.131958 606.530151,784.211609 
	C602.504944,786.056946 598.661987,785.563354 595.517334,782.322388 
	C592.151794,778.853699 591.963257,773.843628 594.812256,769.418762 
	C596.877747,766.210938 599.975281,764.296753 603.316956,762.692566 
	C612.679138,758.198364 622.603394,757.512085 632.609009,759.137573 
	C645.477600,761.228149 652.026489,769.505493 652.215332,783.432312 
	C652.386963,796.090332 652.368347,808.754028 652.204285,821.412231 
	C652.125366,827.502808 654.443420,831.686829 660.296997,833.671631 
	C662.249023,834.333557 663.406067,835.398010 663.249084,837.657593 
	C663.095947,839.863159 661.446411,840.256531 659.864136,840.735229 
	C655.359314,842.098206 650.750122,842.701111 646.054260,842.235107 
	C640.190247,841.653137 636.405762,838.257751 633.783508,833.171875 
	C633.389893,832.408447 633.835754,829.244751 631.008118,831.685181 
M621.957947,829.567505 
	C626.354431,826.850220 631.333740,824.202576 632.376709,818.822083 
	C633.308228,814.016418 632.640381,808.897461 632.643005,803.916748 
	C632.643982,802.018555 631.609253,801.076599 629.764526,801.531982 
	C623.283020,803.132080 616.876709,805.073242 611.877014,809.761230 
	C607.879761,813.509338 607.369202,820.903992 610.687561,825.917358 
	C613.165833,829.661560 616.493042,831.898865 621.957947,829.567505 
z"/>
<path fill="#000000" opacity="1.000000" stroke="none" 
	d="
M521.791626,839.022522 
	C521.626099,835.589722 524.009155,835.827942 525.867676,835.355774 
	C532.187927,833.749878 534.597473,830.943970 534.636780,824.480896 
	C534.730103,809.150452 534.747253,793.818420 534.632080,778.488281 
	C534.579712,771.524841 532.005066,768.697083 525.112793,767.240295 
	C523.155884,766.826721 520.874512,766.688965 521.061340,763.867371 
	C521.244141,761.106262 523.478149,760.946472 525.493408,760.968323 
	C533.381897,761.053650 541.068970,759.799133 548.685913,757.864624 
	C549.907166,757.554443 551.274780,757.821045 553.264771,757.821045 
	C553.264771,763.468262 553.264771,769.022034 553.264771,775.913574 
	C556.439148,771.483643 558.608765,768.162476 561.078308,765.081665 
	C564.389526,760.950867 568.923096,758.967529 574.151306,758.733582 
	C579.635071,758.488159 584.444092,761.487183 586.177307,765.996033 
	C588.294983,771.505310 586.766541,777.112488 582.142639,780.796143 
	C577.263184,784.683472 572.405579,785.043701 567.433411,781.721008 
	C565.661865,780.537170 564.089783,779.054871 562.024719,777.383606 
	C556.662842,783.891785 554.053650,791.380798 553.439636,799.346252 
	C552.839417,807.131775 553.205139,815.002075 553.346497,822.831543 
	C553.481384,830.300903 555.750854,833.190125 562.905518,835.338135 
	C564.781982,835.901489 566.402527,836.312561 566.233154,838.818726 
	C566.064331,841.315674 564.329041,841.869995 562.447571,841.885864 
	C550.119202,841.990173 537.789917,842.009338 525.460938,842.000671 
	C523.758728,841.999512 522.055237,841.693604 521.791626,839.022522 
z"/>
<path fill="#000000" opacity="1.000000" stroke="none" 
	d="
M622.331726,553.005188 
	C623.773376,594.781921 597.646912,631.071594 569.296387,643.607178 
	C567.118347,641.638062 567.951477,638.971924 567.949829,636.631897 
	C567.905273,573.645813 567.929260,510.659668 567.940613,447.673523 
	C567.942810,435.435730 567.938477,435.373505 579.931274,434.941681 
	C589.412537,434.600281 598.311340,432.149353 606.831604,428.084137 
	C608.891296,427.101440 610.794556,425.558411 613.889648,425.876495 
	C612.961060,431.249237 611.841614,436.516754 611.169189,441.840759 
	C609.047668,458.637390 609.600952,475.348236 612.864441,491.995850 
	C615.997437,507.977325 620.021973,523.802002 621.711243,540.044312 
	C622.140930,544.175659 622.136902,548.352173 622.331726,553.005188 
M590.112183,454.019531 
	C588.387085,455.503571 587.653137,457.165497 589.719543,458.849609 
	C591.042419,459.927734 592.280579,459.108826 592.937866,457.891449 
	C594.217468,455.521271 593.053955,454.285431 590.112183,454.019531 
z"/>
<path fill="#000000" opacity="1.000000" stroke="none" 
	d="
M418.789642,591.045044 
	C412.004364,572.373779 411.676849,553.595703 414.184998,534.540833 
	C416.359192,518.023132 420.828461,501.977203 423.877777,485.644989 
	C427.353058,467.031067 427.674316,448.298767 425.268250,429.520264 
	C425.061279,427.904877 424.343353,426.280792 425.514313,424.696259 
	C427.593994,424.166626 428.934906,425.721741 430.442993,426.588348 
	C439.310913,431.684265 449.036987,433.783844 459.051483,434.578247 
	C466.002289,435.129639 466.043335,434.857147 466.041840,441.641144 
	C466.030212,494.756805 466.006439,547.872498 465.996490,600.988159 
	C465.994263,612.976746 466.054291,624.965393 466.029541,636.953857 
	C466.025208,639.052307 466.532349,641.304199 464.315063,643.801270 
	C442.419220,632.203308 427.648834,614.485901 418.789642,591.045044 
z"/>
<path fill="#000000" opacity="1.000000" stroke="none" 
	d="
M519.627380,419.553558 
	C519.683289,417.994873 519.521301,416.808380 520.968628,415.237152 
	C526.214172,418.835846 531.567993,422.343231 536.718445,426.127502 
	C538.654602,427.550140 538.160278,430.061768 538.160339,432.216431 
	C538.161072,500.189880 538.160889,568.163330 538.163635,636.136780 
	C538.163818,640.801453 538.110596,645.468018 538.225464,650.130188 
	C538.294373,652.925354 537.111511,654.296448 534.393311,655.017517 
	C520.943481,658.585449 519.622864,657.617920 519.624390,643.897217 
	C519.632629,569.259460 519.627075,494.621735 519.627380,419.553558 
z"/>
<path fill="#000000" opacity="1.000000" stroke="none" 
	d="
M514.152161,537.000000 
	C514.143311,574.831543 514.138672,612.163147 514.121765,649.494690 
	C514.118713,656.261169 513.757935,656.575806 507.019226,656.113708 
	C495.620148,655.332092 495.641846,655.332153 495.643494,643.881104 
	C495.653656,573.884155 495.703491,503.887054 495.545319,433.890472 
	C495.534515,429.106873 496.889832,426.211151 501.096863,423.952698 
	C505.137482,421.783600 508.748291,418.813843 514.152161,416.522156 
	C514.152161,456.514771 514.152161,496.507385 514.152161,537.000000 
z"/>
<path fill="#000000" opacity="1.000000" stroke="none" 
	d="
M470.879303,498.999329 
	C470.859467,479.003143 470.934204,459.506104 470.737061,440.011780 
	C470.696594,436.010468 471.599915,433.910248 475.947784,433.315704 
	C480.475616,432.696564 484.882965,431.196411 489.134827,430.133545 
	C490.665466,432.252167 490.229034,434.145447 490.229431,435.933258 
	C490.244843,506.256348 490.238617,576.579468 490.224091,646.902527 
	C490.222717,653.451355 489.614258,653.850281 483.256989,651.745850 
	C470.848785,647.638489 470.834869,647.638550 470.837158,634.478577 
	C470.844879,589.485535 470.863312,544.492493 470.879303,498.999329 
z"/>
<path fill="#000000" opacity="1.000000" stroke="none" 
	d="
M559.176270,433.687622 
	C562.412964,434.399963 563.005005,436.189240 562.887512,438.955902 
	C562.004272,459.762970 562.456299,480.576202 562.656067,501.392761 
	C562.844604,521.043030 562.413025,540.698303 562.401184,560.351501 
	C562.384766,587.643677 562.443237,614.936401 562.646606,642.227539 
	C562.671997,645.635498 561.604980,647.519836 558.435486,648.551758 
	C553.890442,650.031433 549.558655,652.302979 544.097900,652.198242 
	C544.097900,578.030090 544.097900,504.040009 544.097900,429.631958 
	C549.230103,431.015961 554.005981,432.303864 559.176270,433.687622 
z"/>
<path fill="#000000" opacity="1.000000" stroke="none" 
	d="
M398.057312,430.820190 
	C395.381989,418.539307 391.177643,407.408081 382.937042,398.189850 
	C379.890503,394.781952 376.327179,391.951050 371.628265,391.366272 
	C368.738831,391.006653 366.354340,390.516876 365.972961,387.047302 
	C365.569641,383.378082 366.520538,380.305725 370.116150,378.804443 
	C375.818115,376.423767 381.266113,377.583984 386.299744,380.765747 
	C394.443085,385.913086 400.317474,393.327789 404.206879,401.848572 
	C420.565399,437.686310 422.053497,473.743225 404.330261,509.678864 
	C401.784424,514.840759 398.065094,519.239136 394.188507,523.422852 
	C393.745331,523.245056 393.302155,523.067200 392.858978,522.889404 
	C393.668762,516.427917 394.262177,509.930481 395.330383,503.512085 
	C398.116486,486.771698 401.477905,470.106873 400.761749,452.992767 
	C400.455261,445.668213 399.925049,438.373596 398.057312,430.820190 
z"/>
<path fill="#000000" opacity="1.000000" stroke="none" 
	d="
M637.293335,453.254456 
	C634.821899,468.911896 637.564880,483.823853 639.769531,498.784271 
	C641.043274,507.427887 641.995972,516.118835 643.087097,524.740662 
	C640.614441,525.385742 640.005737,523.704712 639.116760,522.644165 
	C627.945435,509.316071 621.929260,493.882599 620.941162,476.587891 
	C619.915283,458.631073 621.124023,440.966553 629.820801,424.648407 
	C635.412109,414.157318 642.713501,405.228516 653.709473,400.009827 
	C657.958679,397.993134 662.481384,396.508118 667.103027,399.016022 
	C669.551392,400.344696 671.354431,402.310669 671.084900,405.388794 
	C670.788513,408.772644 668.107483,408.726288 665.624817,409.277313 
	C659.506653,410.635162 655.013489,414.563354 651.034790,419.155060 
	C642.661133,428.818939 638.800232,440.329712 637.293335,453.254456 
z"/>
</svg>