<svg id="圖層_1" data-name="圖層 1" xmlns="http://www.w3.org/2000/svg" viewBox="0 0 52.58 77.2"><defs><style>.cls-1{fill:#fff;}.cls-2,.cls-3{fill:none;stroke:#fff;stroke-miterlimit:10;stroke-width:2px;}.cls-3{stroke-linecap:round;}</style></defs><path class="cls-1" d="M49.88,2.16c-2.9-2.89-7.66-2-7.66-2A10.82,10.82,0,0,0,33.81,6c-.66,1.4-1,2.46-1,5.85,0,1.16,0,27,0,28.4,2.05,0,4.48,6.65,6.34,6.56,0-2.67,0-35.56.21-37.86a3.94,3.94,0,0,1,3.38-3.31c.83-.19,3.22.3,3.28,2.49s-2.37,1-3.17,1.31-2.48,2-.6,4.31c2.31,2.84,7.7.67,9-1.26A6.26,6.26,0,0,0,52.5,9.69,8.24,8.24,0,0,0,49.88,2.16Z"/><path class="cls-1" d="M42,75.85a2.2,2.2,0,0,0,.06-3,40.09,40.09,0,0,0-4.68-4.61c-.93-.41-.29-3-.29-3l-6.4,6.42s2.54-.66,3,.27c.27.62,2.87,3.08,4.6,4.69a2.2,2.2,0,0,0,3-.06Z"/><circle class="cls-2" cx="20.59" cy="55.28" r="19.59"/><path class="cls-3" d="M19.48,40.29s8-1,12.6,5.44"/><path class="cls-3" d="M12.53,68.17A7.37,7.37,0,0,1,8.45,64.8"/></svg>