<svg id="圖層_1" data-name="圖層 1" xmlns="http://www.w3.org/2000/svg" viewBox="0 0 84.12 37.85"><defs><style>.cls-1,.cls-2{fill:none;}.cls-1,.cls-2,.cls-3{stroke:#FFF;}.cls-1,.cls-2,.cls-3,.cls-4{stroke-miterlimit:10;}.cls-2{stroke-linecap:round;}.cls-3{fill:#231815;}.cls-4{stroke:#FFF;}</style></defs><circle class="cls-1" cx="55.62" cy="8.98" r="8.48"/><path class="cls-2" d="M55.14,2.49a6.11,6.11,0,0,1,5.45,2.36"/><path class="cls-2" d="M52.13,14.56a3.2,3.2,0,0,1-1.77-1.46"/><path class="cls-2" d="M47.37,11.77l-1,1.75a1.35,1.35,0,0,0,.21,1.62l1.37,1.37a1.35,1.35,0,0,0,1.38.32l1.75-.6"/><path class="cls-2" d="M46.28,14.84,42.76,37.35h0A2.13,2.13,0,0,0,45,35.49L47.44,16"/><path class="cls-3" d="M50.87,16.35,62.56,37.17h0a2.24,2.24,0,0,1-2.85-1.07L49.77,16.9Z"/><path class="cls-1" d="M1.81,37.09a1,1,0,0,0,.91-1L2.64,10.7h0A2.51,2.51,0,0,0,.5,13.3L.79,36.14a1,1,0,0,0,1,1Z"/><path class="cls-3" d="M2.9,37.11,18.4,37h0c-.41-1.23-1.35-2.08-2.17-2l-13.36.52Z"/><path class="cls-3" d="M1.62,37.11H3.29a.82.82,0,0,0,.81-.82h0c0-.45.36-.81-.09-.81l-2.43.13c-.45,0-.78.23-.78.68h0A.82.82,0,0,0,1.62,37.11Z"/><path class="cls-3" d="M75.39,10.72a1,1,0,0,1,1.18.72l6.92,25.65h0a2.62,2.62,0,0,1-2.87-2L74.62,12a1,1,0,0,1,.77-1.24Z"/><rect class="cls-4" x="73.04" y="24.46" width="6.42" height="2.26" rx="1.13"/><path class="cls-1" d="M75.77,10.72a1,1,0,0,0-1.18.72L67.67,37.09h0a2.62,2.62,0,0,0,2.87-2l6-23.09a1,1,0,0,0-.77-1.24Z"/><path class="cls-1" d="M27.28,23.25,18.71,11h0a3.09,3.09,0,0,1,4,1.1L28.83,21"/><path class="cls-3" d="M29.29,24.79,38.94,11h0a3.09,3.09,0,0,0-4,1.1L27.28,23.25"/><path class="cls-3" d="M30.46,22.71V35.47a1.64,1.64,0,0,1-1.63,1.64h0a1.65,1.65,0,0,1-1.64-1.64V23.12"/><line class="cls-1" x1="27.19" y1="23.12" x2="27.19" y2="22.71"/></svg>