<?xml version="1.0" encoding="utf-8"?>
<!-- Generator: Adobe Illustrator 26.3.1, SVG Export Plug-In . SVG Version: 6.00 Build 0)  -->
<svg version="1.1" id="圖層_1" xmlns="http://www.w3.org/2000/svg" xmlns:xlink="http://www.w3.org/1999/xlink" x="0px" y="0px"
	 viewBox="0 0 84.32 43.91" style="enable-background:new 0 0 84.32 43.91;" xml:space="preserve">
<style type="text/css">
	.st0{fill:none;stroke:#FFFFFF;stroke-miterlimit:10;}
	.st1{fill:none;stroke:#FFFFFF;stroke-linecap:round;stroke-miterlimit:10;}
	.st2{fill:#FFFFFF;stroke:#FFFFFF;stroke-miterlimit:10;}
</style>
<circle class="st0" cx="55.81" cy="10.97" r="8.48"/>
<path class="st1" d="M55.33,4.49c2.1-0.21,4.16,0.68,5.45,2.35"/>
<path class="st1" d="M52.32,16.55c-0.75-0.25-1.38-0.76-1.77-1.45"/>
<path class="st1" d="M47.68,13.52l-0.16,0.24l-1,1.76c-0.3,0.52-0.21,1.18,0.21,1.61l1.37,1.37c0.36,0.36,0.9,0.49,1.38,0.32
	l1.75-0.6l0.45,0.18"/>
<path class="st1" d="M46.44,16.62v0.22l-3.52,22.5l0,0c1.1,0.04,2.06-0.76,2.19-1.86L47.68,18l0.59,0.58"/>
<path class="st2" d="M51.06,18.34l11.69,20.87l0,0c-1.08,0.43-2.32-0.04-2.84-1.08l-10-19.2L51.06,18.34z"/>
<path class="st0" d="M2,39.09c0.52-0.05,0.91-0.48,0.91-1L2.84,12.66l0,0c-1.28,0.18-2.2,1.31-2.14,2.6L0.98,38.1c0,0.55,0.45,1,1,1
	L2,39.09z"/>
<path class="st2" d="M18.68,38.95c-0.41-1.22-1.29-1.96-2.12-1.89l-12.2,0.47H4.15h-1l0,0L1.86,37.6c-0.44,0-0.78,0.23-0.78,0.68
	c0,0.45,0.37,0.82,0.82,0.82l0,0h1.69L18.68,38.95L18.68,38.95z"/>
<path class="st2" d="M76.76,13.44c-0.14-0.55-0.7-0.89-1.26-0.75c-0.55,0.14-0.89,0.7-0.74,1.26l3.25,12.5h-3.7
	c-0.62,0-1.13,0.51-1.13,1.13c0,0.62,0.51,1.13,1.13,1.13h4.17c0.04,0,0.07,0,0.11,0l2.17,8.37c0.3,1.3,1.54,2.17,2.87,2
	L76.76,13.44z"/>
<path class="st0" d="M75.96,12.71c-0.53-0.11-1.05,0.21-1.18,0.73l-6.92,25.64l0,0c1.33,0.17,2.57-0.7,2.87-2l6-23.1
	c0.14-0.53-0.17-1.08-0.71-1.23c-0.02-0.01-0.04-0.01-0.06-0.01V12.71z"/>
<path class="st0" d="M27.48,25.21L18.91,13l0,0c1.42-0.72,3.15-0.24,4,1.1l6.1,8.87"/>
<path class="st2" d="M39.13,13.03c-1.42-0.72-3.15-0.24-4,1.1l-7.54,11h-0.2v12.35c-0.07,0.9,0.6,1.69,1.51,1.76
	c0.9,0.07,1.69-0.6,1.76-1.51c0.01-0.09,0.01-0.17,0-0.26V25.11L39.13,13.03z"/>
<line class="st0" x1="27.38" y1="25.11" x2="27.38" y2="24.71"/>
</svg>
