<svg width="60" height="80" viewBox="0 0 60 80" fill="none" xmlns="http://www.w3.org/2000/svg">
<path d="M11.9995 15C11.9995 11.0218 13.8959 7.20644 17.2716 4.3934C20.6472 1.58035 25.2256 0 29.9995 0C34.7734 0 39.3518 1.58035 42.7274 4.3934C46.1031 7.20644 47.9995 11.0218 47.9995 15V40C47.9995 43.9782 46.1031 47.7936 42.7274 50.6066C39.3518 53.4197 34.7734 55 29.9995 55C25.2256 55 20.6472 53.4197 17.2716 50.6066C13.8959 47.7936 11.9995 43.9782 11.9995 40V15Z" fill="#FFF"/>
<path d="M3 32.5C3.79565 32.5 4.55871 32.7634 5.12132 33.2322C5.68393 33.7011 6 34.337 6 35V40C6 45.3043 8.52856 50.3914 13.0294 54.1421C17.5303 57.8929 23.6348 60 30 60C36.3652 60 42.4697 57.8929 46.9706 54.1421C51.4714 50.3914 54 45.3043 54 40V35C54 34.337 54.3161 33.7011 54.8787 33.2322C55.4413 32.7634 56.2043 32.5 57 32.5C57.7957 32.5 58.5587 32.7634 59.1213 33.2322C59.6839 33.7011 60 34.337 60 35V40C60.0001 46.1976 57.2377 52.1744 52.2487 56.7707C47.2598 61.367 40.3999 64.2552 33 64.875V75H51C51.7957 75 52.5587 75.2634 53.1213 75.7322C53.6839 76.2011 54 76.837 54 77.5C54 78.163 53.6839 78.7989 53.1213 79.2678C52.5587 79.7366 51.7957 80 51 80H9C8.20435 80 7.44129 79.7366 6.87868 79.2678C6.31607 78.7989 6 78.163 6 77.5C6 76.837 6.31607 76.2011 6.87868 75.7322C7.44129 75.2634 8.20435 75 9 75H27V64.875C19.6001 64.2552 12.7403 61.367 7.75128 56.7707C2.76231 52.1744 -9.343e-05 46.1976 2.37004e-09 40V35C2.37004e-09 34.337 0.316071 33.7011 0.87868 33.2322C1.44129 32.7634 2.20435 32.5 3 32.5Z" fill="#FFF"/>
</svg>
